<?xml version="1.0" encoding="UTF-8"?>
<svg xmlns="http://www.w3.org/2000/svg" width="146" height="41" viewBox="0 0 146 41" fill="none">
  <path d="M52.4702 22.364C50.6782 22.364 49.0728 21.944 47.6542 21.104C46.2542 20.2453 45.1528 19.0507 44.3502 17.52C43.5662 15.9893 43.1742 14.216 43.1742 12.2C43.1742 10.184 43.5662 8.41067 44.3502 6.88C45.1528 5.34933 46.2542 4.164 47.6542 3.324C49.0728 2.46533 50.6782 2.036 52.4702 2.036C54.2808 2.036 55.8862 2.46533 57.2862 3.324C58.6862 4.164 59.7782 5.34933 60.5622 6.88C61.3648 8.41067 61.7662 10.184 61.7662 12.2C61.7662 14.216 61.3648 15.9893 60.5622 17.52C59.7782 19.0507 58.6862 20.2453 57.2862 21.104C55.8862 21.944 54.2808 22.364 52.4702 22.364ZM52.4702 20.04C53.7768 20.04 54.9435 19.7227 55.9702 19.088C57.0155 18.4347 57.8368 17.52 58.4342 16.344C59.0315 15.168 59.3302 13.7867 59.3302 12.2C59.3302 10.5947 59.0315 9.204 58.4342 8.028C57.8368 6.852 57.0155 5.94667 55.9702 5.312C54.9435 4.67733 53.7768 4.36 52.4702 4.36C51.1635 4.36 49.9968 4.67733 48.9702 5.312C47.9435 5.94667 47.1222 6.852 46.5062 8.028C45.9088 9.204 45.6102 10.5947 45.6102 12.2C45.6102 13.7867 45.9088 15.168 46.5062 16.344C47.1222 17.52 47.9435 18.4347 48.9702 19.088C49.9968 19.7227 51.1635 20.04 52.4702 20.04ZM71.6436 22.364C70.6729 22.364 69.7769 22.168 68.9556 21.776C68.1529 21.3653 67.4623 20.8147 66.8836 20.124C66.3236 19.4333 65.9129 18.6493 65.6516 17.772V12.172C65.9129 11.276 66.3236 10.492 66.8836 9.82C67.4623 9.12933 68.1529 8.588 68.9556 8.196C69.7769 7.804 70.6729 7.608 71.6436 7.608C72.9129 7.608 74.0423 7.92533 75.0316 8.56C76.0209 9.19467 76.8143 10.072 77.4116 11.192C78.0089 12.2933 78.3076 13.5533 78.3076 14.972C78.3076 16.4093 78.0089 17.688 77.4116 18.808C76.8143 19.9093 76.0209 20.7773 75.0316 21.412C74.0423 22.0467 72.9129 22.364 71.6436 22.364ZM64.4476 27.6V7.972H66.7436V12.984L66.3236 14.972L66.8276 16.988V27.6H64.4476ZM71.4756 20.096C72.3343 20.096 73.0996 19.8813 73.7716 19.452C74.4436 19.004 74.9663 18.3973 75.3396 17.632C75.7316 16.8667 75.9276 15.98 75.9276 14.972C75.9276 13.964 75.7316 13.0773 75.3396 12.312C74.9663 11.5467 74.4436 10.9493 73.7716 10.52C73.0996 10.0907 72.3343 9.876 71.4756 9.876C70.5796 9.876 69.7769 10.0907 69.0676 10.52C68.3769 10.9493 67.8263 11.5467 67.4156 12.312C67.0236 13.0773 66.8276 13.964 66.8276 14.972C66.8276 15.98 67.0236 16.8667 67.4156 17.632C67.8263 18.3973 68.3769 19.004 69.0676 19.452C69.7769 19.8813 70.5796 20.096 71.4756 20.096ZM80.8713 22V1.84L83.1673 1.56L83.2513 1.784V11.92L82.4953 11.5C82.7567 10.6973 83.1673 10.0067 83.7273 9.428C84.2873 8.84933 84.9407 8.40133 85.6873 8.084C86.4527 7.76667 87.2647 7.608 88.1233 7.608C89.1313 7.608 90.0273 7.82267 90.8113 8.252C91.614 8.68133 92.2393 9.316 92.6873 10.156C93.1353 10.996 93.3593 12.0507 93.3593 13.32V22H90.9793V13.908C90.9793 12.9 90.83 12.1067 90.5313 11.528C90.2327 10.9307 89.822 10.5107 89.2993 10.268C88.7953 10.0253 88.2167 9.904 87.5633 9.904C86.854 9.904 86.1633 10.0813 85.4913 10.436C84.838 10.772 84.2967 11.2853 83.8673 11.976C83.4567 12.6667 83.2513 13.5253 83.2513 14.552V22H80.8713ZM100.776 22C99.5625 22 98.5732 21.6173 97.8078 20.852C97.0425 20.068 96.6598 19.0133 96.6598 17.688V4.192H99.0398V17.492C99.0398 18.2947 99.2172 18.8733 99.5718 19.228C99.9265 19.564 100.496 19.732 101.28 19.732H102.96L103.1 20.04V22H100.776ZM94.2518 10.212V7.972H103.1V10.212H94.2518ZM105.67 22V7.972H108.05V22H105.67ZM106.874 5.368C106.407 5.368 106.015 5.20933 105.698 4.892C105.381 4.57467 105.222 4.18267 105.222 3.716C105.222 3.24933 105.381 2.85733 105.698 2.54C106.015 2.204 106.407 2.036 106.874 2.036C107.341 2.036 107.733 2.204 108.05 2.54C108.386 2.85733 108.554 3.24933 108.554 3.716C108.554 4.18267 108.386 4.57467 108.05 4.892C107.733 5.20933 107.341 5.368 106.874 5.368ZM117.589 22.364C116.189 22.364 114.957 22.056 113.893 21.44C112.829 20.8053 111.998 19.9373 111.401 18.836C110.804 17.7347 110.505 16.4467 110.505 14.972C110.505 13.516 110.804 12.2373 111.401 11.136C111.998 10.016 112.829 9.148 113.893 8.532C114.957 7.916 116.189 7.608 117.589 7.608C118.653 7.608 119.605 7.804 120.445 8.196C121.304 8.56933 122.032 9.11067 122.629 9.82C123.245 10.5107 123.702 11.36 124.001 12.368L121.929 12.956H121.621C121.304 12.004 120.781 11.2573 120.053 10.716C119.344 10.156 118.522 9.876 117.589 9.876C116.637 9.876 115.806 10.0907 115.097 10.52C114.406 10.9493 113.865 11.5467 113.473 12.312C113.081 13.0773 112.885 13.964 112.885 14.972C112.885 15.98 113.081 16.876 113.473 17.66C113.865 18.4253 114.406 19.0227 115.097 19.452C115.806 19.8813 116.637 20.096 117.589 20.096C118.242 20.096 118.84 19.9747 119.381 19.732C119.922 19.4893 120.389 19.1347 120.781 18.668C121.192 18.2013 121.509 17.6507 121.733 17.016H122.041L124.141 17.604C123.805 18.612 123.32 19.48 122.685 20.208C122.05 20.9173 121.304 21.4587 120.445 21.832C119.605 22.1867 118.653 22.364 117.589 22.364ZM130.849 22.364C129.878 22.364 129.01 22.1773 128.245 21.804C127.498 21.4307 126.91 20.9173 126.481 20.264C126.052 19.592 125.837 18.8267 125.837 17.968C125.837 16.736 126.276 15.7373 127.153 14.972C128.049 14.2067 129.281 13.7587 130.849 13.628L136.253 13.236V15.364L131.325 15.756C130.298 15.8307 129.533 16.0547 129.029 16.428C128.544 16.7827 128.301 17.2867 128.301 17.94C128.301 18.556 128.562 19.0693 129.085 19.48C129.608 19.8907 130.28 20.096 131.101 20.096C131.941 20.096 132.706 19.9 133.397 19.508C134.088 19.116 134.629 18.5933 135.021 17.94C135.432 17.2867 135.637 16.5587 135.637 15.756V13.488C135.637 12.424 135.301 11.5467 134.629 10.856C133.976 10.1653 133.098 9.82 131.997 9.82C131.138 9.82 130.401 10.0347 129.785 10.464C129.169 10.8747 128.749 11.4533 128.525 12.2H128.217L126.145 11.528C126.556 10.2773 127.274 9.30667 128.301 8.616C129.328 7.92533 130.569 7.58 132.025 7.58C133.929 7.58 135.394 8.14933 136.421 9.288C137.466 10.4267 137.989 12.032 137.989 14.104V22H135.749V17.912L136.589 18.36C136.365 19.1253 135.964 19.816 135.385 20.432C134.825 21.0293 134.153 21.5053 133.369 21.86C132.604 22.196 131.764 22.364 130.849 22.364ZM141.536 22V1.84L143.832 1.56L143.916 1.784V22H141.536Z" fill="white"></path>
  <path d="M76.0547 36.1172C75.5143 36.1172 75.0423 36.0277 74.6387 35.8486C74.2383 35.6663 73.9144 35.4043 73.667 35.0625C73.4196 34.7174 73.2552 34.3024 73.1738 33.8174L74.2188 33.6025C74.2415 34.1787 74.4092 34.6214 74.7217 34.9307C75.0342 35.2399 75.4704 35.3945 76.0303 35.3945C76.3688 35.3945 76.6553 35.3392 76.8896 35.2285C77.1273 35.1178 77.3079 34.9616 77.4316 34.7598C77.5586 34.5579 77.6221 34.3203 77.6221 34.0469C77.6221 33.6823 77.5163 33.4121 77.3047 33.2363C77.0964 33.0573 76.8099 32.9271 76.4453 32.8457L75.5273 32.6406C75.3581 32.6016 75.1611 32.5479 74.9365 32.4795C74.7152 32.4111 74.5003 32.3102 74.292 32.1768C74.0837 32.0433 73.9095 31.8626 73.7695 31.6348C73.6328 31.4069 73.5645 31.1156 73.5645 30.7607C73.5645 30.3083 73.68 29.9421 73.9111 29.6621C74.1455 29.3822 74.4482 29.1771 74.8193 29.0469C75.1937 28.9167 75.5908 28.8516 76.0107 28.8516C76.4958 28.8516 76.9108 28.9297 77.2559 29.0859C77.6042 29.2389 77.8841 29.457 78.0957 29.7402C78.3105 30.0234 78.4554 30.362 78.5303 30.7559L77.5 30.9707C77.474 30.6712 77.4007 30.4189 77.2803 30.2139C77.1598 30.0055 76.9906 29.8477 76.7725 29.7402C76.5544 29.6296 76.2826 29.5742 75.957 29.5742C75.6934 29.5742 75.446 29.6133 75.2148 29.6914C74.987 29.7695 74.8014 29.8916 74.6582 30.0576C74.515 30.2236 74.4434 30.4401 74.4434 30.707C74.4434 30.987 74.5394 31.2116 74.7314 31.3809C74.9268 31.5469 75.2507 31.682 75.7031 31.7861L76.6309 32.001C76.9596 32.0758 77.2705 32.1882 77.5635 32.3379C77.8564 32.4876 78.0941 32.6976 78.2764 32.9678C78.4587 33.2347 78.5498 33.5879 78.5498 34.0273C78.5498 34.4668 78.4489 34.8428 78.2471 35.1553C78.0485 35.4678 77.762 35.707 77.3877 35.873C77.0166 36.0358 76.5723 36.1172 76.0547 36.1172ZM82.1045 36.1172C81.6032 36.1172 81.1686 36.0049 80.8008 35.7803C80.4362 35.5557 80.1546 35.2383 79.9561 34.8281C79.7575 34.4147 79.6582 33.9281 79.6582 33.3682C79.6582 32.805 79.7575 32.3167 79.9561 31.9033C80.1546 31.4899 80.4346 31.1709 80.7959 30.9463C81.1572 30.7217 81.582 30.6094 82.0703 30.6094C82.3503 30.6094 82.6302 30.6549 82.9102 30.7461C83.1934 30.834 83.4505 30.9886 83.6816 31.21C83.916 31.4281 84.1032 31.7292 84.2432 32.1133C84.3864 32.4941 84.458 32.9759 84.458 33.5586H80.1855V32.8945H83.7451L83.5107 33.2021C83.4945 32.7399 83.4196 32.3688 83.2861 32.0889C83.1527 31.8089 82.9785 31.6071 82.7637 31.4834C82.5521 31.3564 82.3161 31.293 82.0557 31.293C81.7464 31.293 81.4795 31.3743 81.2549 31.5371C81.0303 31.6966 80.8577 31.931 80.7373 32.2402C80.6169 32.5495 80.5566 32.9271 80.5566 33.373C80.5566 34.0306 80.6901 34.5384 80.957 34.8965C81.2272 35.2546 81.6097 35.4336 82.1045 35.4336C82.4593 35.4336 82.7572 35.3441 82.998 35.165C83.2422 34.986 83.4212 34.7272 83.5352 34.3887L84.3408 34.6621C84.2139 34.9681 84.0446 35.2301 83.833 35.4482C83.6214 35.6631 83.3691 35.8291 83.0762 35.9463C82.7865 36.0602 82.4626 36.1172 82.1045 36.1172ZM87.9834 36.1172C87.4821 36.1172 87.0475 36.0049 86.6797 35.7803C86.3151 35.5557 86.0335 35.2383 85.835 34.8281C85.6364 34.4147 85.5371 33.9281 85.5371 33.3682C85.5371 32.805 85.6364 32.3167 85.835 31.9033C86.0335 31.4899 86.3135 31.1709 86.6748 30.9463C87.0361 30.7217 87.4609 30.6094 87.9492 30.6094C88.2292 30.6094 88.5091 30.6549 88.7891 30.7461C89.0723 30.834 89.3294 30.9886 89.5605 31.21C89.7949 31.4281 89.9821 31.7292 90.1221 32.1133C90.2653 32.4941 90.3369 32.9759 90.3369 33.5586H86.0645V32.8945H89.624L89.3896 33.2021C89.3734 32.7399 89.2985 32.3688 89.165 32.0889C89.0316 31.8089 88.8574 31.6071 88.6426 31.4834C88.431 31.3564 88.195 31.293 87.9346 31.293C87.6253 31.293 87.3584 31.3743 87.1338 31.5371C86.9092 31.6966 86.7367 31.931 86.6162 32.2402C86.4958 32.5495 86.4355 32.9271 86.4355 33.373C86.4355 34.0306 86.569 34.5384 86.8359 34.8965C87.1061 35.2546 87.4886 35.4336 87.9834 35.4336C88.3382 35.4336 88.6361 35.3441 88.877 35.165C89.1211 34.986 89.3001 34.7272 89.4141 34.3887L90.2197 34.6621C90.0928 34.9681 89.9235 35.2301 89.7119 35.4482C89.5003 35.6631 89.248 35.8291 88.9551 35.9463C88.6654 36.0602 88.3415 36.1172 87.9834 36.1172ZM94.1211 36V28.9688H95V35.2773H98.5156V36H94.1211ZM99.3652 36V30.7266H100.186V36H99.3652ZM99.7754 29.8428C99.5866 29.8428 99.4255 29.776 99.292 29.6426C99.1585 29.5091 99.0918 29.348 99.0918 29.1592C99.0918 28.9671 99.1585 28.806 99.292 28.6758C99.4255 28.5423 99.5866 28.4756 99.7754 28.4756C99.9674 28.4756 100.129 28.5423 100.259 28.6758C100.392 28.806 100.459 28.9671 100.459 29.1592C100.459 29.348 100.392 29.5091 100.259 29.6426C100.129 29.776 99.9674 29.8428 99.7754 29.8428ZM102.129 36V29.7695C102.129 29.3757 102.222 29.0957 102.407 28.9297C102.593 28.7604 102.904 28.6758 103.34 28.6758H103.999V29.3594H103.223C103.125 29.3594 103.055 29.3805 103.013 29.4229C102.97 29.4652 102.949 29.5352 102.949 29.6328V36H102.129ZM101.343 31.4102V30.7266H104.131V31.4102H101.343ZM107.114 36.1172C106.613 36.1172 106.178 36.0049 105.811 35.7803C105.446 35.5557 105.164 35.2383 104.966 34.8281C104.767 34.4147 104.668 33.9281 104.668 33.3682C104.668 32.805 104.767 32.3167 104.966 31.9033C105.164 31.4899 105.444 31.1709 105.806 30.9463C106.167 30.7217 106.592 30.6094 107.08 30.6094C107.36 30.6094 107.64 30.6549 107.92 30.7461C108.203 30.834 108.46 30.9886 108.691 31.21C108.926 31.4281 109.113 31.7292 109.253 32.1133C109.396 32.4941 109.468 32.9759 109.468 33.5586H105.195V32.8945H108.755L108.521 33.2021C108.504 32.7399 108.429 32.3688 108.296 32.0889C108.162 31.8089 107.988 31.6071 107.773 31.4834C107.562 31.3564 107.326 31.293 107.065 31.293C106.756 31.293 106.489 31.3743 106.265 31.5371C106.04 31.6966 105.868 31.931 105.747 32.2402C105.627 32.5495 105.566 32.9271 105.566 33.373C105.566 34.0306 105.7 34.5384 105.967 34.8965C106.237 35.2546 106.619 35.4336 107.114 35.4336C107.469 35.4336 107.767 35.3441 108.008 35.165C108.252 34.986 108.431 34.7272 108.545 34.3887L109.351 34.6621C109.224 34.9681 109.054 35.2301 108.843 35.4482C108.631 35.6631 108.379 35.8291 108.086 35.9463C107.796 36.0602 107.472 36.1172 107.114 36.1172ZM116.216 36.1172C115.552 36.1172 114.969 35.9609 114.468 35.6484C113.97 35.3359 113.582 34.9046 113.306 34.3545C113.029 33.8011 112.891 33.1663 112.891 32.4502C112.891 31.7536 113.022 31.1351 113.286 30.5947C113.553 30.0544 113.934 29.6296 114.429 29.3203C114.924 29.0078 115.516 28.8516 116.206 28.8516C116.906 28.8516 117.518 29.0322 118.042 29.3936C118.566 29.7549 118.914 30.305 119.087 31.0439L118.154 31.2637C118.014 30.6842 117.77 30.2578 117.422 29.9844C117.077 29.7109 116.667 29.5742 116.191 29.5742C115.697 29.5742 115.273 29.6995 114.922 29.9502C114.574 30.2008 114.307 30.5443 114.121 30.9805C113.936 31.4167 113.843 31.9163 113.843 32.4795C113.843 33.0524 113.937 33.5586 114.126 33.998C114.318 34.4375 114.587 34.7809 114.932 35.0283C115.277 35.2725 115.684 35.3945 116.152 35.3945C116.663 35.3945 117.104 35.2399 117.476 34.9307C117.847 34.6214 118.083 34.1917 118.184 33.6416L119.146 33.9053C118.953 34.6279 118.594 35.1781 118.066 35.5557C117.539 35.93 116.922 36.1172 116.216 36.1172ZM121.05 36C120.841 36 120.659 35.9316 120.503 35.7949C120.347 35.6549 120.269 35.4792 120.269 35.2676V28.6758H121.089V35.0479C121.089 35.1553 121.104 35.2269 121.133 35.2627C121.165 35.2985 121.232 35.3164 121.333 35.3164H121.846V36H121.05ZM125.005 36.1172C124.504 36.1172 124.069 36.0049 123.701 35.7803C123.337 35.5557 123.055 35.2383 122.856 34.8281C122.658 34.4147 122.559 33.9281 122.559 33.3682C122.559 32.805 122.658 32.3167 122.856 31.9033C123.055 31.4899 123.335 31.1709 123.696 30.9463C124.058 30.7217 124.482 30.6094 124.971 30.6094C125.251 30.6094 125.531 30.6549 125.811 30.7461C126.094 30.834 126.351 30.9886 126.582 31.21C126.816 31.4281 127.004 31.7292 127.144 32.1133C127.287 32.4941 127.358 32.9759 127.358 33.5586H123.086V32.8945H126.646L126.411 33.2021C126.395 32.7399 126.32 32.3688 126.187 32.0889C126.053 31.8089 125.879 31.6071 125.664 31.4834C125.452 31.3564 125.216 31.293 124.956 31.293C124.647 31.293 124.38 31.3743 124.155 31.5371C123.931 31.6966 123.758 31.931 123.638 32.2402C123.517 32.5495 123.457 32.9271 123.457 33.373C123.457 34.0306 123.59 34.5384 123.857 34.8965C124.128 35.2546 124.51 35.4336 125.005 35.4336C125.36 35.4336 125.658 35.3441 125.898 35.165C126.143 34.986 126.322 34.7272 126.436 34.3887L127.241 34.6621C127.114 34.9681 126.945 35.2301 126.733 35.4482C126.522 35.6631 126.27 35.8291 125.977 35.9463C125.687 36.0602 125.363 36.1172 125.005 36.1172ZM129.951 36.1172C129.6 36.1172 129.294 36.0505 129.033 35.917C128.776 35.7803 128.577 35.5947 128.438 35.3604C128.298 35.126 128.228 34.8607 128.228 34.5645C128.228 34.2487 128.32 33.9574 128.506 33.6904C128.691 33.4235 128.978 33.2103 129.365 33.0508C129.756 32.888 130.256 32.8066 130.864 32.8066H131.743L131.655 32.8945V32.6064C131.655 32.1833 131.571 31.8594 131.401 31.6348C131.232 31.4069 130.949 31.293 130.552 31.293C130.177 31.293 129.889 31.3906 129.688 31.5859C129.486 31.778 129.378 32.0368 129.365 32.3623L128.442 32.1523C128.472 31.8691 128.579 31.612 128.765 31.3809C128.953 31.1465 129.204 30.9593 129.517 30.8193C129.832 30.6794 130.197 30.6094 130.61 30.6094C131.037 30.6094 131.383 30.6908 131.65 30.8535C131.921 31.013 132.119 31.2441 132.246 31.5469C132.373 31.8496 132.437 32.2142 132.437 32.6406V35.0479C132.437 35.1553 132.451 35.2269 132.48 35.2627C132.513 35.2985 132.58 35.3164 132.681 35.3164H132.979V36H132.456C132.235 36 132.049 35.9316 131.899 35.7949C131.75 35.6549 131.675 35.4792 131.675 35.2676V34.8965H131.797C131.745 35.0332 131.67 35.1732 131.572 35.3164C131.475 35.4564 131.351 35.5882 131.201 35.7119C131.051 35.8324 130.872 35.93 130.664 36.0049C130.459 36.0798 130.221 36.1172 129.951 36.1172ZM130.137 35.4336C130.407 35.4336 130.658 35.3669 130.889 35.2334C131.12 35.0999 131.305 34.8916 131.445 34.6084C131.589 34.3219 131.66 33.9508 131.66 33.4951V33.4512H130.835C130.402 33.4512 130.06 33.5081 129.81 33.6221C129.562 33.736 129.386 33.8776 129.282 34.0469C129.178 34.2129 129.126 34.3789 129.126 34.5449C129.126 34.7109 129.163 34.8607 129.238 34.9941C129.313 35.1276 129.425 35.235 129.575 35.3164C129.725 35.3945 129.912 35.4336 130.137 35.4336ZM134.116 36V30.7266H134.888V31.8447L134.858 31.7178C135.015 31.3532 135.249 31.0781 135.562 30.8926C135.877 30.7038 136.196 30.6094 136.519 30.6094C136.613 30.6094 136.704 30.6175 136.792 30.6338C136.883 30.6501 136.968 30.6777 137.046 30.7168L136.938 31.4883C136.759 31.4329 136.582 31.4053 136.406 31.4053C136.296 31.4053 136.157 31.4281 135.991 31.4736C135.828 31.516 135.666 31.6038 135.503 31.7373C135.343 31.8675 135.208 32.0628 135.098 32.3232C134.99 32.5837 134.937 32.9303 134.937 33.3633V36H134.116ZM138.677 36C138.468 36 138.286 35.9316 138.13 35.7949C137.974 35.6549 137.896 35.4792 137.896 35.2676V28.6758H138.716V35.0479C138.716 35.1553 138.73 35.2269 138.76 35.2627C138.792 35.2985 138.859 35.3164 138.96 35.3164H139.473V36H138.677ZM140.552 37.9043V37.2207H141.353C141.411 37.2207 141.457 37.2012 141.489 37.1621C141.522 37.1263 141.553 37.0677 141.582 36.9863L141.963 35.8975L141.88 36.2734L139.761 30.7266H140.679L142.358 35.585L142.178 35.541L143.853 30.7266H144.761L142.246 37.3135C142.178 37.4925 142.062 37.6357 141.899 37.7432C141.737 37.8506 141.567 37.9043 141.392 37.9043H140.552Z" fill="white" fill-opacity="0.8"></path>
  <g clip-path="url(#clip0_5416_255)">
    <path d="M23.5751 40.3735C14.8656 41.8641 5.85533 35.283 -3.20113e-07 29.1345C7.86906 34.1811 20.1571 38.6857 28.6659 32.3924C22.6945 34.3395 14.9001 31.339 9.66543 28.3262C13.1563 28.8591 17.101 29.9978 20.6332 29.7987C25.913 29.5018 30.6568 26.7652 35.8267 26.0778C43.0819 25.1123 47.8202 33.3734 50 39.5186C45.108 31.8628 30.0615 39.2632 23.5751 40.3735C12.2152 42.3174 31.6436 38.9923 23.5751 40.3735Z" fill="#FF9067"></path>
  </g>
  <path d="M22.5 0C29.4036 0 35 5.59644 35 12.5C35 19.4036 29.4036 25 22.5 25C15.5964 25 10 19.4036 10 12.5C10 9.56763 11.0124 6.87319 12.7031 4.74121C12.5719 5.1371 12.5 5.5601 12.5 6C12.5 8.20914 14.2909 10 16.5 10C18.7091 9.99999 20.5 8.20913 20.5 6C20.5 3.79088 18.7091 2.00001 16.5 2C16.1684 2 15.8462 2.04016 15.5381 2.11621C17.5278 0.779582 19.9229 0 22.5 0Z" fill="white"></path>
  <defs>
    <clipPath id="clip0_5416_255">
      <rect width="50" height="15" fill="white" transform="matrix(-1 0 0 1 50 26)"></rect>
    </clipPath>
  </defs>
</svg>
