<svg xmlns="http://www.w3.org/2000/svg" width="145" height="41" viewBox="0 0 145 41" fill="none"><path d="M51.4702 22.364C49.6782 22.364 48.0728 21.944 46.6542 21.104C45.2542 20.2453 44.1528 19.0507 43.3502 17.52C42.5662 15.9893 42.1742 14.216 42.1742 12.2C42.1742 10.184 42.5662 8.41067 43.3502 6.88C44.1528 5.34933 45.2542 4.164 46.6542 3.324C48.0728 2.46533 49.6782 2.036 51.4702 2.036C53.2808 2.036 54.8862 2.46533 56.2862 3.324C57.6862 4.164 58.7782 5.34933 59.5622 6.88C60.3648 8.41067 60.7662 10.184 60.7662 12.2C60.7662 14.216 60.3648 15.9893 59.5622 17.52C58.7782 19.0507 57.6862 20.2453 56.2862 21.104C54.8862 21.944 53.2808 22.364 51.4702 22.364ZM51.4702 20.04C52.7768 20.04 53.9435 19.7227 54.9702 19.088C56.0155 18.4347 56.8368 17.52 57.4342 16.344C58.0315 15.168 58.3302 13.7867 58.3302 12.2C58.3302 10.5947 58.0315 9.204 57.4342 8.028C56.8368 6.852 56.0155 5.94667 54.9702 5.312C53.9435 4.67733 52.7768 4.36 51.4702 4.36C50.1635 4.36 48.9968 4.67733 47.9702 5.312C46.9435 5.94667 46.1222 6.852 45.5062 8.028C44.9088 9.204 44.6102 10.5947 44.6102 12.2C44.6102 13.7867 44.9088 15.168 45.5062 16.344C46.1222 17.52 46.9435 18.4347 47.9702 19.088C48.9968 19.7227 50.1635 20.04 51.4702 20.04ZM70.6436 22.364C69.6729 22.364 68.7769 22.168 67.9556 21.776C67.1529 21.3653 66.4623 20.8147 65.8836 20.124C65.3236 19.4333 64.9129 18.6493 64.6516 17.772V12.172C64.9129 11.276 65.3236 10.492 65.8836 9.82C66.4623 9.12933 67.1529 8.588 67.9556 8.196C68.7769 7.804 69.6729 7.608 70.6436 7.608C71.9129 7.608 73.0423 7.92533 74.0316 8.56C75.0209 9.19467 75.8143 10.072 76.4116 11.192C77.0089 12.2933 77.3076 13.5533 77.3076 14.972C77.3076 16.4093 77.0089 17.688 76.4116 18.808C75.8143 19.9093 75.0209 20.7773 74.0316 21.412C73.0423 22.0467 71.9129 22.364 70.6436 22.364ZM63.4476 27.6V7.972H65.7436V12.984L65.3236 14.972L65.8276 16.988V27.6H63.4476ZM70.4756 20.096C71.3343 20.096 72.0996 19.8813 72.7716 19.452C73.4436 19.004 73.9663 18.3973 74.3396 17.632C74.7316 16.8667 74.9276 15.98 74.9276 14.972C74.9276 13.964 74.7316 13.0773 74.3396 12.312C73.9663 11.5467 73.4436 10.9493 72.7716 10.52C72.0996 10.0907 71.3343 9.876 70.4756 9.876C69.5796 9.876 68.7769 10.0907 68.0676 10.52C67.3769 10.9493 66.8263 11.5467 66.4156 12.312C66.0236 13.0773 65.8276 13.964 65.8276 14.972C65.8276 15.98 66.0236 16.8667 66.4156 17.632C66.8263 18.3973 67.3769 19.004 68.0676 19.452C68.7769 19.8813 69.5796 20.096 70.4756 20.096ZM79.8713 22V1.84L82.1673 1.56L82.2513 1.784V11.92L81.4953 11.5C81.7567 10.6973 82.1673 10.0067 82.7273 9.428C83.2873 8.84933 83.9407 8.40133 84.6873 8.084C85.4527 7.76667 86.2647 7.608 87.1233 7.608C88.1313 7.608 89.0273 7.82267 89.8113 8.252C90.614 8.68133 91.2393 9.316 91.6873 10.156C92.1353 10.996 92.3593 12.0507 92.3593 13.32V22H89.9793V13.908C89.9793 12.9 89.83 12.1067 89.5313 11.528C89.2327 10.9307 88.822 10.5107 88.2993 10.268C87.7953 10.0253 87.2167 9.904 86.5633 9.904C85.854 9.904 85.1633 10.0813 84.4913 10.436C83.838 10.772 83.2967 11.2853 82.8673 11.976C82.4567 12.6667 82.2513 13.5253 82.2513 14.552V22H79.8713ZM99.7758 22C98.5625 22 97.5732 21.6173 96.8078 20.852C96.0425 20.068 95.6598 19.0133 95.6598 17.688V4.192H98.0398V17.492C98.0398 18.2947 98.2172 18.8733 98.5718 19.228C98.9265 19.564 99.4958 19.732 100.28 19.732H101.96L102.1 20.04V22H99.7758ZM93.2518 10.212V7.972H102.1V10.212H93.2518ZM104.67 22V7.972H107.05V22H104.67ZM105.874 5.368C105.407 5.368 105.015 5.20933 104.698 4.892C104.381 4.57467 104.222 4.18267 104.222 3.716C104.222 3.24933 104.381 2.85733 104.698 2.54C105.015 2.204 105.407 2.036 105.874 2.036C106.341 2.036 106.733 2.204 107.05 2.54C107.386 2.85733 107.554 3.24933 107.554 3.716C107.554 4.18267 107.386 4.57467 107.05 4.892C106.733 5.20933 106.341 5.368 105.874 5.368ZM116.589 22.364C115.189 22.364 113.957 22.056 112.893 21.44C111.829 20.8053 110.998 19.9373 110.401 18.836C109.804 17.7347 109.505 16.4467 109.505 14.972C109.505 13.516 109.804 12.2373 110.401 11.136C110.998 10.016 111.829 9.148 112.893 8.532C113.957 7.916 115.189 7.608 116.589 7.608C117.653 7.608 118.605 7.804 119.445 8.196C120.304 8.56933 121.032 9.11067 121.629 9.82C122.245 10.5107 122.702 11.36 123.001 12.368L120.929 12.956H120.621C120.304 12.004 119.781 11.2573 119.053 10.716C118.344 10.156 117.522 9.876 116.589 9.876C115.637 9.876 114.806 10.0907 114.097 10.52C113.406 10.9493 112.865 11.5467 112.473 12.312C112.081 13.0773 111.885 13.964 111.885 14.972C111.885 15.98 112.081 16.876 112.473 17.66C112.865 18.4253 113.406 19.0227 114.097 19.452C114.806 19.8813 115.637 20.096 116.589 20.096C117.242 20.096 117.84 19.9747 118.381 19.732C118.922 19.4893 119.389 19.1347 119.781 18.668C120.192 18.2013 120.509 17.6507 120.733 17.016H121.041L123.141 17.604C122.805 18.612 122.32 19.48 121.685 20.208C121.05 20.9173 120.304 21.4587 119.445 21.832C118.605 22.1867 117.653 22.364 116.589 22.364ZM129.849 22.364C128.878 22.364 128.01 22.1773 127.245 21.804C126.498 21.4307 125.91 20.9173 125.481 20.264C125.052 19.592 124.837 18.8267 124.837 17.968C124.837 16.736 125.276 15.7373 126.153 14.972C127.049 14.2067 128.281 13.7587 129.849 13.628L135.253 13.236V15.364L130.325 15.756C129.298 15.8307 128.533 16.0547 128.029 16.428C127.544 16.7827 127.301 17.2867 127.301 17.94C127.301 18.556 127.562 19.0693 128.085 19.48C128.608 19.8907 129.28 20.096 130.101 20.096C130.941 20.096 131.706 19.9 132.397 19.508C133.088 19.116 133.629 18.5933 134.021 17.94C134.432 17.2867 134.637 16.5587 134.637 15.756V13.488C134.637 12.424 134.301 11.5467 133.629 10.856C132.976 10.1653 132.098 9.82 130.997 9.82C130.138 9.82 129.401 10.0347 128.785 10.464C128.169 10.8747 127.749 11.4533 127.525 12.2H127.217L125.145 11.528C125.556 10.2773 126.274 9.30667 127.301 8.616C128.328 7.92533 129.569 7.58 131.025 7.58C132.929 7.58 134.394 8.14933 135.421 9.288C136.466 10.4267 136.989 12.032 136.989 14.104V22H134.749V17.912L135.589 18.36C135.365 19.1253 134.964 19.816 134.385 20.432C133.825 21.0293 133.153 21.5053 132.369 21.86C131.604 22.196 130.764 22.364 129.849 22.364ZM140.536 22V1.84L142.832 1.56L142.916 1.784V22H140.536Z" fill="#1D5E84"></path><path d="M75.0547 36.1172C74.5143 36.1172 74.0423 36.0277 73.6387 35.8486C73.2383 35.6663 72.9144 35.4043 72.667 35.0625C72.4196 34.7174 72.2552 34.3024 72.1738 33.8174L73.2188 33.6025C73.2415 34.1787 73.4092 34.6214 73.7217 34.9307C74.0342 35.2399 74.4704 35.3945 75.0303 35.3945C75.3688 35.3945 75.6553 35.3392 75.8896 35.2285C76.1273 35.1178 76.3079 34.9616 76.4316 34.7598C76.5586 34.5579 76.6221 34.3203 76.6221 34.0469C76.6221 33.6823 76.5163 33.4121 76.3047 33.2363C76.0964 33.0573 75.8099 32.9271 75.4453 32.8457L74.5273 32.6406C74.3581 32.6016 74.1611 32.5479 73.9365 32.4795C73.7152 32.4111 73.5003 32.3102 73.292 32.1768C73.0837 32.0433 72.9095 31.8626 72.7695 31.6348C72.6328 31.4069 72.5645 31.1156 72.5645 30.7607C72.5645 30.3083 72.68 29.9421 72.9111 29.6621C73.1455 29.3822 73.4482 29.1771 73.8193 29.0469C74.1937 28.9167 74.5908 28.8516 75.0107 28.8516C75.4958 28.8516 75.9108 28.9297 76.2559 29.0859C76.6042 29.2389 76.8841 29.457 77.0957 29.7402C77.3105 30.0234 77.4554 30.362 77.5303 30.7559L76.5 30.9707C76.474 30.6712 76.4007 30.4189 76.2803 30.2139C76.1598 30.0055 75.9906 29.8477 75.7725 29.7402C75.5544 29.6296 75.2826 29.5742 74.957 29.5742C74.6934 29.5742 74.446 29.6133 74.2148 29.6914C73.987 29.7695 73.8014 29.8916 73.6582 30.0576C73.515 30.2236 73.4434 30.4401 73.4434 30.707C73.4434 30.987 73.5394 31.2116 73.7314 31.3809C73.9268 31.5469 74.2507 31.682 74.7031 31.7861L75.6309 32.001C75.9596 32.0758 76.2705 32.1882 76.5635 32.3379C76.8564 32.4876 77.0941 32.6976 77.2764 32.9678C77.4587 33.2347 77.5498 33.5879 77.5498 34.0273C77.5498 34.4668 77.4489 34.8428 77.2471 35.1553C77.0485 35.4678 76.762 35.707 76.3877 35.873C76.0166 36.0358 75.5723 36.1172 75.0547 36.1172ZM81.1045 36.1172C80.6032 36.1172 80.1686 36.0049 79.8008 35.7803C79.4362 35.5557 79.1546 35.2383 78.9561 34.8281C78.7575 34.4147 78.6582 33.9281 78.6582 33.3682C78.6582 32.805 78.7575 32.3167 78.9561 31.9033C79.1546 31.4899 79.4346 31.1709 79.7959 30.9463C80.1572 30.7217 80.582 30.6094 81.0703 30.6094C81.3503 30.6094 81.6302 30.6549 81.9102 30.7461C82.1934 30.834 82.4505 30.9886 82.6816 31.21C82.916 31.4281 83.1032 31.7292 83.2432 32.1133C83.3864 32.4941 83.458 32.9759 83.458 33.5586H79.1855V32.8945H82.7451L82.5107 33.2021C82.4945 32.7399 82.4196 32.3688 82.2861 32.0889C82.1527 31.8089 81.9785 31.6071 81.7637 31.4834C81.5521 31.3564 81.3161 31.293 81.0557 31.293C80.7464 31.293 80.4795 31.3743 80.2549 31.5371C80.0303 31.6966 79.8577 31.931 79.7373 32.2402C79.6169 32.5495 79.5566 32.9271 79.5566 33.373C79.5566 34.0306 79.6901 34.5384 79.957 34.8965C80.2272 35.2546 80.6097 35.4336 81.1045 35.4336C81.4593 35.4336 81.7572 35.3441 81.998 35.165C82.2422 34.986 82.4212 34.7272 82.5352 34.3887L83.3408 34.6621C83.2139 34.9681 83.0446 35.2301 82.833 35.4482C82.6214 35.6631 82.3691 35.8291 82.0762 35.9463C81.7865 36.0602 81.4626 36.1172 81.1045 36.1172ZM86.9834 36.1172C86.4821 36.1172 86.0475 36.0049 85.6797 35.7803C85.3151 35.5557 85.0335 35.2383 84.835 34.8281C84.6364 34.4147 84.5371 33.9281 84.5371 33.3682C84.5371 32.805 84.6364 32.3167 84.835 31.9033C85.0335 31.4899 85.3135 31.1709 85.6748 30.9463C86.0361 30.7217 86.4609 30.6094 86.9492 30.6094C87.2292 30.6094 87.5091 30.6549 87.7891 30.7461C88.0723 30.834 88.3294 30.9886 88.5605 31.21C88.7949 31.4281 88.9821 31.7292 89.1221 32.1133C89.2653 32.4941 89.3369 32.9759 89.3369 33.5586H85.0645V32.8945H88.624L88.3896 33.2021C88.3734 32.7399 88.2985 32.3688 88.165 32.0889C88.0316 31.8089 87.8574 31.6071 87.6426 31.4834C87.431 31.3564 87.195 31.293 86.9346 31.293C86.6253 31.293 86.3584 31.3743 86.1338 31.5371C85.9092 31.6966 85.7367 31.931 85.6162 32.2402C85.4958 32.5495 85.4355 32.9271 85.4355 33.373C85.4355 34.0306 85.569 34.5384 85.8359 34.8965C86.1061 35.2546 86.4886 35.4336 86.9834 35.4336C87.3382 35.4336 87.6361 35.3441 87.877 35.165C88.1211 34.986 88.3001 34.7272 88.4141 34.3887L89.2197 34.6621C89.0928 34.9681 88.9235 35.2301 88.7119 35.4482C88.5003 35.6631 88.248 35.8291 87.9551 35.9463C87.6654 36.0602 87.3415 36.1172 86.9834 36.1172ZM93.1211 36V28.9688H94V35.2773H97.5156V36H93.1211ZM98.3652 36V30.7266H99.1855V36H98.3652ZM98.7754 29.8428C98.5866 29.8428 98.4255 29.776 98.292 29.6426C98.1585 29.5091 98.0918 29.348 98.0918 29.1592C98.0918 28.9671 98.1585 28.806 98.292 28.6758C98.4255 28.5423 98.5866 28.4756 98.7754 28.4756C98.9674 28.4756 99.1286 28.5423 99.2588 28.6758C99.3923 28.806 99.459 28.9671 99.459 29.1592C99.459 29.348 99.3923 29.5091 99.2588 29.6426C99.1286 29.776 98.9674 29.8428 98.7754 29.8428ZM101.129 36V29.7695C101.129 29.3757 101.222 29.0957 101.407 28.9297C101.593 28.7604 101.904 28.6758 102.34 28.6758H102.999V29.3594H102.223C102.125 29.3594 102.055 29.3805 102.013 29.4229C101.97 29.4652 101.949 29.5352 101.949 29.6328V36H101.129ZM100.343 31.4102V30.7266H103.131V31.4102H100.343ZM106.114 36.1172C105.613 36.1172 105.178 36.0049 104.811 35.7803C104.446 35.5557 104.164 35.2383 103.966 34.8281C103.767 34.4147 103.668 33.9281 103.668 33.3682C103.668 32.805 103.767 32.3167 103.966 31.9033C104.164 31.4899 104.444 31.1709 104.806 30.9463C105.167 30.7217 105.592 30.6094 106.08 30.6094C106.36 30.6094 106.64 30.6549 106.92 30.7461C107.203 30.834 107.46 30.9886 107.691 31.21C107.926 31.4281 108.113 31.7292 108.253 32.1133C108.396 32.4941 108.468 32.9759 108.468 33.5586H104.195V32.8945H107.755L107.521 33.2021C107.504 32.7399 107.429 32.3688 107.296 32.0889C107.162 31.8089 106.988 31.6071 106.773 31.4834C106.562 31.3564 106.326 31.293 106.065 31.293C105.756 31.293 105.489 31.3743 105.265 31.5371C105.04 31.6966 104.868 31.931 104.747 32.2402C104.627 32.5495 104.566 32.9271 104.566 33.373C104.566 34.0306 104.7 34.5384 104.967 34.8965C105.237 35.2546 105.619 35.4336 106.114 35.4336C106.469 35.4336 106.767 35.3441 107.008 35.165C107.252 34.986 107.431 34.7272 107.545 34.3887L108.351 34.6621C108.224 34.9681 108.054 35.2301 107.843 35.4482C107.631 35.6631 107.379 35.8291 107.086 35.9463C106.796 36.0602 106.472 36.1172 106.114 36.1172ZM115.216 36.1172C114.552 36.1172 113.969 35.9609 113.468 35.6484C112.97 35.3359 112.582 34.9046 112.306 34.3545C112.029 33.8011 111.891 33.1663 111.891 32.4502C111.891 31.7536 112.022 31.1351 112.286 30.5947C112.553 30.0544 112.934 29.6296 113.429 29.3203C113.924 29.0078 114.516 28.8516 115.206 28.8516C115.906 28.8516 116.518 29.0322 117.042 29.3936C117.566 29.7549 117.914 30.305 118.087 31.0439L117.154 31.2637C117.014 30.6842 116.77 30.2578 116.422 29.9844C116.077 29.7109 115.667 29.5742 115.191 29.5742C114.697 29.5742 114.273 29.6995 113.922 29.9502C113.574 30.2008 113.307 30.5443 113.121 30.9805C112.936 31.4167 112.843 31.9163 112.843 32.4795C112.843 33.0524 112.937 33.5586 113.126 33.998C113.318 34.4375 113.587 34.7809 113.932 35.0283C114.277 35.2725 114.684 35.3945 115.152 35.3945C115.663 35.3945 116.104 35.2399 116.476 34.9307C116.847 34.6214 117.083 34.1917 117.184 33.6416L118.146 33.9053C117.953 34.6279 117.594 35.1781 117.066 35.5557C116.539 35.93 115.922 36.1172 115.216 36.1172ZM120.05 36C119.841 36 119.659 35.9316 119.503 35.7949C119.347 35.6549 119.269 35.4792 119.269 35.2676V28.6758H120.089V35.0479C120.089 35.1553 120.104 35.2269 120.133 35.2627C120.165 35.2985 120.232 35.3164 120.333 35.3164H120.846V36H120.05ZM124.005 36.1172C123.504 36.1172 123.069 36.0049 122.701 35.7803C122.337 35.5557 122.055 35.2383 121.856 34.8281C121.658 34.4147 121.559 33.9281 121.559 33.3682C121.559 32.805 121.658 32.3167 121.856 31.9033C122.055 31.4899 122.335 31.1709 122.696 30.9463C123.058 30.7217 123.482 30.6094 123.971 30.6094C124.251 30.6094 124.531 30.6549 124.811 30.7461C125.094 30.834 125.351 30.9886 125.582 31.21C125.816 31.4281 126.004 31.7292 126.144 32.1133C126.287 32.4941 126.358 32.9759 126.358 33.5586H122.086V32.8945H125.646L125.411 33.2021C125.395 32.7399 125.32 32.3688 125.187 32.0889C125.053 31.8089 124.879 31.6071 124.664 31.4834C124.452 31.3564 124.216 31.293 123.956 31.293C123.647 31.293 123.38 31.3743 123.155 31.5371C122.931 31.6966 122.758 31.931 122.638 32.2402C122.517 32.5495 122.457 32.9271 122.457 33.373C122.457 34.0306 122.59 34.5384 122.857 34.8965C123.128 35.2546 123.51 35.4336 124.005 35.4336C124.36 35.4336 124.658 35.3441 124.898 35.165C125.143 34.986 125.322 34.7272 125.436 34.3887L126.241 34.6621C126.114 34.9681 125.945 35.2301 125.733 35.4482C125.522 35.6631 125.27 35.8291 124.977 35.9463C124.687 36.0602 124.363 36.1172 124.005 36.1172ZM128.951 36.1172C128.6 36.1172 128.294 36.0505 128.033 35.917C127.776 35.7803 127.577 35.5947 127.438 35.3604C127.298 35.126 127.228 34.8607 127.228 34.5645C127.228 34.2487 127.32 33.9574 127.506 33.6904C127.691 33.4235 127.978 33.2103 128.365 33.0508C128.756 32.888 129.256 32.8066 129.864 32.8066H130.743L130.655 32.8945V32.6064C130.655 32.1833 130.571 31.8594 130.401 31.6348C130.232 31.4069 129.949 31.293 129.552 31.293C129.177 31.293 128.889 31.3906 128.688 31.5859C128.486 31.778 128.378 32.0368 128.365 32.3623L127.442 32.1523C127.472 31.8691 127.579 31.612 127.765 31.3809C127.953 31.1465 128.204 30.9593 128.517 30.8193C128.832 30.6794 129.197 30.6094 129.61 30.6094C130.037 30.6094 130.383 30.6908 130.65 30.8535C130.921 31.013 131.119 31.2441 131.246 31.5469C131.373 31.8496 131.437 32.2142 131.437 32.6406V35.0479C131.437 35.1553 131.451 35.2269 131.48 35.2627C131.513 35.2985 131.58 35.3164 131.681 35.3164H131.979V36H131.456C131.235 36 131.049 35.9316 130.899 35.7949C130.75 35.6549 130.675 35.4792 130.675 35.2676V34.8965H130.797C130.745 35.0332 130.67 35.1732 130.572 35.3164C130.475 35.4564 130.351 35.5882 130.201 35.7119C130.051 35.8324 129.872 35.93 129.664 36.0049C129.459 36.0798 129.221 36.1172 128.951 36.1172ZM129.137 35.4336C129.407 35.4336 129.658 35.3669 129.889 35.2334C130.12 35.0999 130.305 34.8916 130.445 34.6084C130.589 34.3219 130.66 33.9508 130.66 33.4951V33.4512H129.835C129.402 33.4512 129.06 33.5081 128.81 33.6221C128.562 33.736 128.386 33.8776 128.282 34.0469C128.178 34.2129 128.126 34.3789 128.126 34.5449C128.126 34.7109 128.163 34.8607 128.238 34.9941C128.313 35.1276 128.425 35.235 128.575 35.3164C128.725 35.3945 128.912 35.4336 129.137 35.4336ZM133.116 36V30.7266H133.888V31.8447L133.858 31.7178C134.015 31.3532 134.249 31.0781 134.562 30.8926C134.877 30.7038 135.196 30.6094 135.519 30.6094C135.613 30.6094 135.704 30.6175 135.792 30.6338C135.883 30.6501 135.968 30.6777 136.046 30.7168L135.938 31.4883C135.759 31.4329 135.582 31.4053 135.406 31.4053C135.296 31.4053 135.157 31.4281 134.991 31.4736C134.828 31.516 134.666 31.6038 134.503 31.7373C134.343 31.8675 134.208 32.0628 134.098 32.3232C133.99 32.5837 133.937 32.9303 133.937 33.3633V36H133.116ZM137.677 36C137.468 36 137.286 35.9316 137.13 35.7949C136.974 35.6549 136.896 35.4792 136.896 35.2676V28.6758H137.716V35.0479C137.716 35.1553 137.73 35.2269 137.76 35.2627C137.792 35.2985 137.859 35.3164 137.96 35.3164H138.473V36H137.677ZM139.552 37.9043V37.2207H140.353C140.411 37.2207 140.457 37.2012 140.489 37.1621C140.522 37.1263 140.553 37.0677 140.582 36.9863L140.963 35.8975L140.88 36.2734L138.761 30.7266H139.679L141.358 35.585L141.178 35.541L142.853 30.7266H143.761L141.246 37.3135C141.178 37.4925 141.062 37.6357 140.899 37.7432C140.737 37.8506 140.567 37.9043 140.392 37.9043H139.552Z" fill="#5A5A5A"></path><g clip-path="url(#clip0_8546_702)"><path d="M22.5751 40.3735C13.8656 41.8641 4.85533 35.283 -1 29.1345C6.86906 34.1811 19.1571 38.6857 27.6659 32.3924C21.6945 34.3395 13.9001 31.339 8.66543 28.3262C12.1563 28.8591 16.101 29.9978 19.6332 29.7987C24.913 29.5018 29.6568 26.7652 34.8267 26.0778C42.0819 25.1123 46.8202 33.3734 49 39.5186C44.108 31.8628 29.0615 39.2632 22.5751 40.3735C11.2152 42.3174 30.6436 38.9923 22.5751 40.3735Z" fill="#FF9067"></path></g><path d="M21.5 0C28.4036 0 34 5.59644 34 12.5C34 19.4036 28.4036 25 21.5 25C14.5964 25 9 19.4036 9 12.5C9 9.56763 10.0124 6.87319 11.7031 4.74121C11.5719 5.1371 11.5 5.5601 11.5 6C11.5 8.20914 13.2909 10 15.5 10C17.7091 9.99999 19.5 8.20913 19.5 6C19.5 3.79088 17.7091 2.00001 15.5 2C15.1684 2 14.8462 2.04016 14.5381 2.11621C16.5278 0.779582 18.9229 0 21.5 0Z" fill="#1D5E84"></path><defs><clipPath id="clip0_8546_702"><rect width="50" height="15" fill="white" transform="matrix(-1 0 0 1 49 26)"></rect></clipPath></defs></svg>